<mxfile host="app.diagrams.net" modified="2023-04-06T11:14:59.041Z" agent="Mozilla/5.0 (Windows NT 10.0; Win64; x64) AppleWebKit/537.36 (KHTML, like Gecko) Chrome/112.0.0.0 Safari/537.36" version="21.1.4" etag="HNgx6gABTvZFFPx9fyQc" type="github">
  <diagram name="페이지-1" id="DRoZ5lRjpzRsE5-AVUWS">
    <mxGraphModel>
      <root>
        <mxCell id="0" />
        <mxCell id="1" parent="0" />
      </root>
    </mxGraphModel>
  </diagram>
</mxfile>
